<svg xmlns="http://www.w3.org/2000/svg" viewBox="0 0 16 16" fill="currentColor">
  <path d="M3.5 2.25a1.75 1.75 0 1 0 1 1.58v6.34a1.75 1.75 0 1 0-1 0V3.83a1.75 1.75 0 0 0 0-1.58ZM3.5 12.75a.75.75 0 1 1 0 1.5.75.75 0 0 1 0-1.5ZM3.5 2.5a.75.75 0 1 1 0 1.5.75.75 0 0 1 0-1.5Zm8.03 1.78a.75.75 0 0 1 1.06 0l2.22 2.22a.75.75 0 0 1 0 1.06l-2.22 2.22a.75.75 0 1 1-1.06-1.06l.94-.94H9.5A2.75 2.75 0 0 0 6.75 10.5v.67a1.75 1.75 0 1 0 1 1.58v-.67A1.75 1.75 0 0 1 9.5 8.5h2.97l-.94-.94a.75.75 0 0 1 0-1.06ZM6.75 12.75a.75.75 0 1 1 0 1.5.75.75 0 0 1 0-1.5Z"/>
</svg>
